<svg width="350" height="46" viewBox="0 0 350 46" fill="none" xmlns="http://www.w3.org/2000/svg">
<path d="M337.298 30.4633H317.54V33.0528H323.185V36.9369H328.83L338.709 35.6422L340.12 36.9369L345.766 39.5264H350V42.1158H347.177V46C220.625 42.5828 152.419 42.1158 45.1608 44.7053L14.1124 46V42.1158H18.3463V39.5264H14.1124V36.9369H2.82209V33.0528L-0.000488281 26.5791V22.695H14.1124L12.7011 20.1055H26.814L31.0479 18.8108H43.7495V16.2213H36.6931L32.4592 14.9266L31.0479 13.6319L28.2253 12.3372L31.0479 9.74772H36.6931L40.9269 7.15827H46.5721H59.2737V3.2741C159.72 -1.96839 218.068 -0.0971044 320.862 3.19959L323.185 3.2741V7.15827L326.008 9.74772L328.83 7.15827H337.298V12.3372H342.943V16.2213H340.12V23.9897H337.298V30.4633Z" fill="#AE0F0F"/>
</svg>
